<svg width="27" height="32" viewBox="0 0 27 32" fill="none" xmlns="http://www.w3.org/2000/svg">
<path d="M13.8249 0.114929L10.7124 3.55111H11.2455L11.9624 2.7583H14.0829L14.5178 3.55046H15.7122L13.8249 0.114929ZM13.2706 1.31088L13.9148 2.46098H12.232L13.2706 1.31088Z" fill="white"/>
<path d="M8.26539 1.90618H7.26378L8.74216 3.55045H10.0971L8.72501 2.11382C10.6198 2.11382 10.5203 1.03988 10.5203 1.03988C10.5203 0.171567 9.04746 0.207299 9.04746 0.207299H6.4776L5.86633 3.55045H6.95986L7.52034 0.489093H8.58714C8.58714 0.489093 9.30197 0.475615 9.30197 1.07629C9.30197 1.07629 9.31639 1.9082 8.26539 1.90618Z" fill="white"/>
<path d="M18.7218 0.538964H20.5604L20.6077 0.207275H15.7918L15.7451 0.539631H17.5823L17.0294 3.55042H18.1689L18.7218 0.538964Z" fill="white"/>
<path d="M24.0565 0.207049C24.0457 0.207098 24.0399 0.207251 24.0399 0.207251H21.4694L20.8582 3.55042H21.9523L22.2055 2.18387H23.7045C25.6 2.18387 25.5122 1.03984 25.5122 1.03984C25.5122 0.225796 24.2182 0.206303 24.0565 0.207049ZM22.5122 0.489032H23.5796C23.5796 0.489032 24.2938 0.475554 24.2938 1.07623C24.2938 1.07623 24.3082 1.88183 23.2579 1.88048H22.2617L22.5122 0.489032Z" fill="white"/>
<path d="M9.13596 11.0592C10.648 9.48169 12.8076 8.39562 15.1867 8.39562C19.7646 8.39562 23.476 11.999 23.476 16.4983C23.476 19.4977 21.7953 22.5031 19.3379 23.9161C18.9921 25.0628 18.7548 25.9298 18.6409 27.3846C23.4568 25.9514 26.9117 21.6988 26.9117 16.4983C26.9117 10.1343 21.7068 5.19202 15.2306 5.19202C11.5343 5.19202 8.30448 6.82955 6.15515 9.45539C6.15515 9.45539 7.85993 9.92731 9.13801 11.0511" fill="white"/>
<path d="M7.23831 14.2823C6.9886 15.0597 6.91932 15.6401 6.91932 16.4983C6.91932 21.1581 10.6884 24.7096 15.2662 24.7096C15.0097 25.739 14.8697 26.5527 14.7641 27.7338C13.8811 27.7237 13.0202 27.6624 12.1935 27.4675C7.14364 26.2797 3.36226 21.8457 3.46036 16.4983C3.48575 15.15 3.63324 13.9945 4.12924 12.7844C4.12924 12.7844 5.8937 12.9091 7.23831 14.2823Z" fill="white"/>
<path d="M15.0687 13.9372C15.0687 13.9372 15.1586 14.7718 15.2299 15.3111C15.2299 15.3111 15.2368 15.4763 15.4721 15.5423L16.1142 15.7453C16.1142 15.7453 16.5855 15.8902 16.5272 16.3675L16.46 17.1199C16.46 17.1199 16.709 16.741 17.1138 16.7626C17.1138 16.7626 17.6571 16.8266 17.6461 17.3659C17.6461 17.3659 17.6022 17.9302 17.7861 18.09C17.7861 18.09 17.926 18.3718 18.7726 18.452C19.1554 18.4803 19.4579 18.6758 19.4579 18.6758C20.0911 19.1606 19.6493 19.95 19.6493 19.95C19.6493 19.95 18.4145 22.5698 17.8732 25.0635C17.8732 25.0635 16.7371 29.0114 17.7902 31.8914H16.3056C14.7003 27.0576 17.9439 20.3976 17.9439 20.3976C17.9439 20.3976 18.3088 19.7397 17.8224 19.6534C17.6468 19.621 17.616 19.6163 17.4026 19.5772C17.4026 19.5772 16.5951 19.5307 16.7769 18.5498C16.9093 17.8318 16.3056 18.1837 16.3056 18.1837C15.658 18.5242 15.6134 18.0179 15.6134 18.0179C15.5846 17.757 15.5393 17.3376 15.5393 17.3376C15.5105 17.0626 15.3486 17.041 15.3486 17.041L14.6296 16.8913C14.0945 16.7626 14.0822 16.2806 14.0822 16.2806L13.9786 15.0367C13.9642 14.4805 13.4113 14.6457 13.4113 14.6457C13.0875 14.732 12.0351 14.8844 12.0351 14.8844C12.0351 14.8844 11.4225 15.0435 10.4901 14.8304C9.78971 14.641 8.90064 14.1826 7.86679 13.3136C6.86587 12.4385 5.55556 11.9605 5.55556 11.9605C2.87524 11.0781 0.131104 12.2295 0.131104 12.2295V10.7093C0.131104 10.7093 2.43275 9.49312 5.67287 10.4626C5.67287 10.4626 7.29324 10.832 9.05977 12.3374C9.05977 12.3374 9.63879 12.8356 10.3358 13.1828C10.3358 13.1828 11.0204 13.594 12.0783 13.4491C13.3667 13.2549 14.1275 13.2246 14.1275 13.2246C14.1275 13.2246 15.0159 13.1275 15.0687 13.9372Z" fill="white"/>
</svg>
