<svg width="27" height="27" viewBox="0 0 27 27" fill="none" xmlns="http://www.w3.org/2000/svg">
<g clip-path="url(#clip0_137_546)">
<path d="M13.5 27C20.9558 27 27 20.9558 27 13.5C27 6.04416 20.9558 0 13.5 0C6.04416 0 0 6.04416 0 13.5C0 20.9558 6.04416 27 13.5 27Z" fill="#83C491"/>
<path d="M18.3702 16.0842C18.3702 13.4086 16.4651 11.8493 14.0934 11.8493C12.5522 11.8493 11.6168 12.396 11.1349 12.8199C11.3377 9.94235 12.7961 8.34308 14.803 8.34308C15.6336 8.34308 16.3842 8.52501 16.769 8.68693L17.2148 6.25516C16.51 6.09315 15.7891 6.01166 15.0659 6.01227C10.4862 6.01227 8.1554 9.57944 8.1554 14.5449C8.1554 18.335 9.55369 21.0506 13.4657 21.0506C16.4642 21.0506 18.3702 18.9436 18.3702 16.0851M15.4917 16.409C15.4917 17.6472 14.762 18.8007 13.3428 18.8007C11.8835 18.8007 11.0939 17.4844 11.0939 16.1251C11.0939 15.6994 11.0939 15.1317 11.2558 14.8869C11.5416 14.4411 12.2684 14.0963 13.1809 14.0963C14.6001 14.0963 15.4917 15.0697 15.4917 16.4071" fill="#25303B"/>
</g>
<defs>
<clipPath id="clip0_137_546">
<rect width="27" height="27" fill="white"/>
</clipPath>
</defs>
</svg>
